<svg width="19" height="19" viewBox="0 0 19 19" fill="none" xmlns="http://www.w3.org/2000/svg">
<g id="Group 335">
<rect id="Rectangle 28" x="0.5" y="0.963379" width="18" height="18" rx="9" fill="#0066FF"/>
<g id="Group 31">
<path id="Vector" d="M9.50305 5.25223V5.86097C9.50305 6.38479 9.40496 6.4697 9.06674 6.65385L5.91553 8.25361V8.32443L9.05244 9.896C9.40496 10.0799 9.50305 10.1509 9.50305 10.6889V11.3683C9.50305 11.793 9.36204 11.9347 8.99624 11.7365L4.25511 9.13132C3.97412 8.97568 3.875 8.86235 3.875 8.53688V8.08378C3.875 7.7581 3.97412 7.63067 4.25511 7.47504L8.99624 4.88404C9.36204 4.6859 9.50305 4.82743 9.50305 5.25223Z" fill="white"/>
<path id="Vector_2" d="M10.0038 7.49163L14.7306 10.0825C15.0259 10.2383 15.125 10.3515 15.125 10.6771V11.1302C15.125 11.4699 15.0259 11.5832 14.7306 11.7389L10.0038 14.3298C9.62368 14.528 9.49698 14.3865 9.49698 13.9617V13.353C9.49698 12.8292 9.59507 12.7441 9.93329 12.5743L13.0845 10.9744V10.8895L9.94759 9.31795C9.59507 9.14811 9.49698 9.06309 9.49698 8.52507V7.84551C9.49698 7.42071 9.62368 7.27928 10.0038 7.49163Z" fill="white"/>
</g>
</g>
</svg>
